<svg width="128" height="128" xmlns="http://www.w3.org/2000/svg" xmlns:xlink="http://www.w3.org/1999/xlink" class="">
    
    <style type="text/css">
      .hole {
        animation: bounce-hole 3s linear infinite;
      }

      .hole-outline {
        animation: bounce-hole-outline 3s linear infinite;
      }

      .snout {
        animation: bounce-snout 3s linear infinite;
      }

      @keyframes bounce-hole-outline {
        45% {
          cy: 66.17;
          rx: 11.26;
          ry: 21.7;
        }

        50% {
          cy: 62;
          rx: 16.26;
          ry: 25.7;
        }

        70% {
          cy: 66.17;
          rx: 11.26;
          ry: 21.7;
        }
      }

      @keyframes bounce-hole {
        45% {
          cy: 66.49;
          rx: 8.52;
          ry: 19.88;
        }

        50% {
          cy: 61.50;
          rx: 13.26;
          ry: 23.7;
        }

        70% {
          cy: 66.49;
          rx: 8.52;
          ry: 19.88;
        }
      }

      @keyframes bounce-snout {
        47% {
          transform: translate(0px, 0px);
        }

        52% {
          transform: translate(0px, -5px);
        }

        60% {
          transform: translate(0px, 0px);
        }
      }


      /*******************************************/


      .loading .hole {
        animation: bounce-hole-loading .5s linear infinite;
      }

      .loading .hole-outline {
        animation: bounce-hole-outline-loading .5s linear infinite;
      }

      .loading .snout {
        animation: bounce-snout-loading .5s linear infinite;
      }

      @keyframes bounce-hole-outline-loading {
        5% {
          cy: 66.17;
          rx: 11.26;
          ry: 21.7;
        }

        50% {
          cy: 62;
          rx: 16.26;
          ry: 25.7;
        }

        95% {
          cy: 66.17;
          rx: 11.26;
          ry: 21.7;
        }
      }

      @keyframes bounce-hole-loading {
        5% {
          cy: 66.49;
          rx: 8.52;
          ry: 19.88;
        }

        50% {
          cy: 61.50;
          rx: 13.26;
          ry: 23.7;
        }

        95% {
          cy: 66.49;
          rx: 8.52;
          ry: 19.88;
        }
      }

      @keyframes bounce-snout-loading {
        7% {
          transform: translate(0px, 0px);
        }

        52% {
          transform: translate(0px, -5px);
        }

        93% {
          transform: translate(0px, 0px);
        }
      }

    </style>
  
  <g id="Layer_2" class="loading">
    <g>
      <g>
        <linearGradient id="gradient-1" gradientUnits="userSpaceOnUse" x1="64" x2="64" y1="13.475" y2="116.2372">
          <stop offset="0.3893" style="stop-color:#FFB5B5"/>
          <stop offset="0.748" style="stop-color:#E99494"/>
          <stop offset="0.9461" style="stop-color:#E08787"/>
        </linearGradient>
        <linearGradient id="gradient-2" gradientUnits="userSpaceOnUse" x1="64" x2="64" y1="13.475" y2="116.2372">
          <stop offset="0.3893" style="stop-color:#FFB5B5"/>
          <stop offset="0.748" style="stop-color:#E85151"/>
          <stop offset="0.9461" style="stop-color:#E03636"/>
        </linearGradient>
        <linearGradient id="gradient-2" gradientUnits="userSpaceOnUse" x1="64" x2="64" y1="13.475" y2="116.2372">
          <stop offset="1.0" style="stop-color:#FFB5B5"/>
          <stop offset="1.0" style="stop-color:#9f007e"/>
          <stop offset="1.0" style="stop-color:#590050"/>
        </linearGradient>
        <path class="svg-animate snout" id="snout-fill" style="fill:url(#gradient-2);" d="M64,115.28c-16.29,0-31.04-4.19-41.55-11.8C11.36,95.54,5.5,84.21,5.5,70.8 c0-13.95,6.25-28.44,17.15-39.75C34.1,19.16,48.79,12.62,64,12.62c15.21,0,29.9,6.55,41.35,18.43 c10.9,11.32,17.15,25.8,17.15,39.75c0,13.41-5.86,24.74-16.95,32.78C95.04,111.19,80.29,115.38,64,115.38z" />
        <path class="svg-animate snout" id="snout-stroke" style="fill:#ED7E7E;" d="M64,14.12c14.8,0,29.1,6.38,40.27,17.97C114.9,43.13,121,57.24,121,70.8 c0,12.9-5.65,23.82-16.33,31.56c-10.25,7.43-24.69,11.52-40.67,11.52c-15.98,0-30.42-4.09-40.67-11.52 C12.65,94.62,7,83.71,7,70.8c0-13.56,6.1-27.67,16.73-38.71C34.9,20.5,49.2,14.12,64,14.12 M64,11.12C30.86,11.12,4,41.6,4,70.8 s26.86,46.08,60,46.08s60-16.87,60-46.08S97.14,11.12,64,11.12L64,11.12z" />
      </g>
      <g>
        <ellipse cx="44.71" cy="66.17" rx="11.26" ry="21.7" style="fill:#404040;" class="svg-animate hole-outline" />
        <ellipse cx="41.97" cy="66.49" rx="8.52" ry="19.88" class="svg-animate hole" />
        <ellipse cx="83.29" cy="66.17" rx="11.26" ry="21.7" style="fill:#404040;" class="svg-animate hole-outline" />
        <ellipse cx="80.55" cy="66.49" rx="8.52" ry="19.88" class="svg-animate hole" />
      </g>
    </g>
  </g>
</svg>